Coordinates
version=1
nRows=6
nColumns=63
inDegrees=yes

Units are S.I. units (second, meters, Newtons, ...)
If the header above contains a line with 'inDegrees', this indicates whether rotational values are in degrees (yes) or radians (no).

endheader
time	pelvis_tilt	pelvis_list	pelvis_rotation	pelvis_tx	pelvis_ty	pelvis_tz	hip_flexion_r	hip_adduction_r	hip_rotation_r	knee_angle_r	knee_angle_r_beta	ankle_angle_r	subtalar_angle_r	mtp_angle_r	hip_flexion_l	hip_adduction_l	hip_rotation_l	knee_angle_l	knee_angle_l_beta	ankle_angle_l	subtalar_angle_l	mtp_angle_l	L5_S1_Flex_Ext	L5_S1_Lat_Bending	L5_S1_axial_rotation	L4_L5_Flex_Ext	L4_L5_Lat_Bending	L4_L5_axial_rotation	L3_L4_Flex_Ext	L3_L4_Lat_Bending	L3_L4_axial_rotation	L2_L3_Flex_Ext	L2_L3_Lat_Bending	L2_L3_axial_rotation	L1_L2_Flex_Ext	L1_L2_Lat_Bending	L1_L2_axial_rotation	L1_T12_Flex_Ext	L1_T12_Lat_Bending	L1_T12_axial_rotation	Abs_r3	Abs_r2	Abs_r1	Abs_t1	Abs_t2	neck_flexion	neck_bending	neck_rotation	arm_flex_r	arm_add_r	arm_rot_r	elbow_flex_r	pro_sup_r	wrist_flex_r	wrist_dev_r	arm_flex_l	arm_add_l	arm_rot_l	elbow_flex_l	pro_sup_l	wrist_flex_l	wrist_dev_l
0.000000	5.344650	-1.785296	114.841932	0.348360	0.454345	0.978524	8.770520	0.293892	-4.529412	5.046902	0.088085	15.919478	3.934454	0.000000	10.156730	-0.930364	-10.048228	7.536239	0.131532	18.620492	14.538461	0.000000	0.185851	0.005668	-0.635201	0.345145	0.007538	-0.674901	0.305335	0.013780	-0.674901	0.212410	0.013780	-0.555801	0.172582	0.011557	-0.516100	0.106195	0.008779	-0.476400	1.327518	0.064113	-3.532795	0.000000	0.000000	20.668073	1.925337	3.161921	14.208970	-18.807954	40.373046	86.133270	89.756043	9.740138	8.977269	28.839254	-14.026331	48.968975	95.566063	89.646388	-18.965830	11.560395
0.020408	4.971434	-2.233429	115.347713	0.348798	0.453251	0.978096	9.548759	-0.599701	-7.140181	6.275457	0.109527	17.154088	6.123440	0.000000	10.498552	-0.326599	-8.738127	7.922212	0.138269	18.358452	13.175586	0.000000	0.203471	-0.090037	-0.695625	0.377866	-0.119749	-0.739101	0.334282	-0.218915	-0.739101	0.232547	-0.218915	-0.608672	0.188943	-0.183603	-0.565195	0.116263	-0.139467	-0.521719	1.453371	-1.018514	-3.868856	0.000000	0.000000	21.728789	2.577189	2.225670	13.190981	-18.835559	41.689945	90.147416	82.892044	9.041584	13.233547	28.009339	-14.244271	49.616618	98.268291	88.216815	-14.326640	12.152719
0.040816	4.659576	-2.570655	115.704697	0.349177	0.452232	0.977838	10.216270	-1.328283	-9.267238	7.376853	0.128750	18.247766	7.918484	0.000000	10.803578	0.149525	-7.701505	8.333389	0.145445	18.257900	11.972053	0.000000	0.213598	-0.163515	-0.733031	0.396674	-0.217475	-0.778845	0.350921	-0.397571	-0.778845	0.244122	-0.397571	-0.641402	0.198348	-0.333440	-0.595588	0.122050	-0.253285	-0.549773	1.525712	-1.849717	-4.076899	0.000000	0.000000	22.493966	3.002390	1.562526	12.534555	-18.522570	42.115042	92.280241	77.710422	8.444404	16.482617	27.128385	-14.305176	49.351278	99.617976	87.321209	-11.175392	12.546857
0.061224	4.405314	-2.807268	115.925227	0.349496	0.451277	0.977723	10.779631	-1.904117	-10.950826	8.356224	0.145844	19.207752	9.352779	0.000000	11.071126	0.508556	-6.913987	8.759779	0.152887	18.298295	10.919265	0.000000	0.217143	-0.216678	-0.748906	0.403256	-0.288182	-0.795713	0.356744	-0.526832	-0.795713	0.248173	-0.526832	-0.655293	0.201639	-0.441850	-0.608486	0.124076	-0.335635	-0.561680	1.551031	-2.451108	-4.165192	0.000000	0.000000	22.999065	3.224265	1.140567	12.198989	-17.918113	41.842860	92.705975	73.967705	7.934558	18.811572	26.206914	-14.228709	48.326984	99.723642	86.880092	-9.336876	12.760762
0.081633	4.204881	-2.953560	116.021646	0.349754	0.450375	0.977722	11.245418	-2.339467	-12.231188	9.218705	0.160897	20.041291	10.459516	0.000000	11.300518	0.761043	-6.351197	9.191392	0.160420	18.459095	10.008625	0.000000	0.215013	-0.251436	-0.744737	0.399301	-0.334411	-0.791283	0.353245	-0.611343	-0.791283	0.245738	-0.611343	-0.651645	0.199661	-0.512729	-0.605099	0.122858	-0.389475	-0.558553	1.535816	-2.844300	-4.142006	0.000000	0.000000	23.279546	3.266139	0.927871	12.143585	-17.071312	41.067924	91.598849	71.420419	7.498002	20.307501	25.255446	-14.034536	46.697761	98.693814	86.813985	-8.635880	12.812385
0.102041	4.054515	-3.019826	116.006296	0.349949	0.449513	0.977807	11.620207	-2.646596	-13.148568	9.969429	0.173999	20.755622	11.271886	0.000000	11.491075	0.917535	-5.988761	9.618237	0.167870	18.719758	9.231537	0.000000	0.208117	-0.269700	-0.722011	0.386494	-0.358701	-0.767137	0.341915	-0.655749	-0.767137	0.237857	-0.655749	-0.631760	0.193257	-0.549973	-0.586634	0.118918	-0.417766	-0.541508	1.486559	-3.050904	-4.015609	0.000000	0.000000	23.370868	3.151340	0.892513	12.327639	-16.031294	39.984760	89.133093	69.825091	7.120695	21.057495	24.284503	-13.742320	44.617639	96.637016	87.043412	-8.897192	12.719680
